# Blender v2.92.0 OBJ File: ''
# www.blender.org
mtllib 地面禁止.mtl
o 地面禁止
v 0.000000 1.000000 0.000000
v 0.000000 0.000000 -0.990000
v 0.000000 0.000000 0.000000
v 1.000000 0.000000 0.000000
v 1.000000 1.000000 -0.990000
v 1.000000 1.000000 0.000000
v 1.000000 0.000000 -0.990000
v 0.000000 1.000000 -0.990000
v 0.010000 0.010000 -0.990000
v 0.010000 0.990000 -0.990000
v 0.990000 0.010000 -0.990000
v 0.010000 0.010000 -1.000000
v 0.990000 0.010000 -1.000000
v 0.990000 0.990000 -0.990000
v 0.990000 0.990000 -1.000000
v 0.010000 0.990000 -1.000000
v 0.110000 0.110000 -1.000000
v 0.110000 0.890000 -1.000000
v 0.890000 0.110000 -1.000000
v 0.110000 0.310000 -1.001000
v 0.110000 0.260000 -1.001000
v 0.110000 0.210000 -1.001000
v 0.140000 0.110000 -1.001000
v 0.190000 0.110000 -1.001000
v 0.240000 0.110000 -1.001000
v 0.290000 0.110000 -1.001000
v 0.340000 0.110000 -1.001000
v 0.390000 0.110000 -1.001000
v 0.440000 0.110000 -1.001000
v 0.490000 0.110000 -1.001000
v 0.890000 0.890000 -1.000000
v 0.890000 0.140000 -1.001000
v 0.890000 0.190000 -1.001000
v 0.890000 0.240000 -1.001000
v 0.890000 0.290000 -1.001000
v 0.890000 0.340000 -1.001000
v 0.890000 0.390000 -1.001000
v 0.890000 0.440000 -1.001000
v 0.890000 0.490000 -1.001000
v 0.740000 0.110000 -1.001000
v 0.790000 0.110000 -1.001000
v 0.540000 0.110000 -1.001000
v 0.590000 0.110000 -1.001000
v 0.640000 0.110000 -1.001000
v 0.690000 0.110000 -1.001000
v 0.160000 0.210000 -1.000000
v 0.840000 0.162666 -1.000000
v 0.157334 0.162666 -1.000000
v 0.157334 0.212666 -1.000000
v 0.160000 0.310000 -1.000000
v 0.160000 0.360000 -1.000000
v 0.160000 0.260000 -1.000000
v 0.160000 0.410000 -1.000000
v 0.160000 0.460000 -1.000000
v 0.840000 0.840000 -1.000000
v 0.840000 0.240000 -1.001000
v 0.840000 0.190000 -1.001000
v 0.157334 0.262666 -1.000000
v 0.157334 0.312666 -1.000000
v 0.157334 0.362666 -1.000000
v 0.157334 0.412666 -1.000000
v 0.157334 0.462666 -1.000000
v 0.157334 0.512666 -1.000000
v 0.160000 0.510000 -1.000000
v 0.160000 0.560000 -1.000000
v 0.160000 0.610000 -1.000000
v 0.157334 0.612666 -1.000000
v 0.157334 0.562666 -1.000000
v 0.160000 0.660000 -1.000000
v 0.157334 0.662666 -1.000000
v 0.157334 0.712666 -1.000000
v 0.160000 0.710000 -1.000000
v 0.160000 0.760000 -1.000000
v 0.160000 0.810000 -1.000000
v 0.157334 0.812666 -1.000000
v 0.157334 0.762666 -1.000000
v 0.160000 0.840000 -1.000000
v 0.360000 0.840000 -1.001000
v 0.410000 0.840000 -1.001000
v 0.310000 0.840000 -1.001000
v 0.260000 0.840000 -1.001000
v 0.210000 0.840000 -1.001000
v 0.460000 0.840000 -1.001000
v 0.510000 0.840000 -1.001000
v 0.840000 0.340000 -1.001000
v 0.840000 0.290000 -1.001000
v 0.840000 0.790000 -1.001000
v 0.840000 0.740000 -1.001000
v 0.840000 0.690000 -1.001000
v 0.840000 0.640000 -1.001000
v 0.840000 0.590000 -1.001000
v 0.840000 0.540000 -1.001000
v 0.840000 0.490000 -1.001000
v 0.840000 0.440000 -1.001000
v 0.840000 0.390000 -1.001000
v 0.760000 0.840000 -1.001000
v 0.810000 0.840000 -1.001000
v 0.710000 0.840000 -1.001000
v 0.660000 0.840000 -1.001000
v 0.610000 0.840000 -1.001000
v 0.560000 0.840000 -1.001000
v 0.110000 0.460000 -1.001000
v 0.110000 0.410000 -1.001000
v 0.110000 0.360000 -1.001000
v 0.110000 0.860000 -1.001000
v 0.110000 0.810000 -1.001000
v 0.110000 0.660000 -1.001000
v 0.110000 0.610000 -1.001000
v 0.110000 0.710000 -1.001000
v 0.110000 0.760000 -1.001000
v 0.110000 0.510000 -1.001000
v 0.110000 0.560000 -1.001000
v 0.310000 0.890000 -1.001000
v 0.260000 0.890000 -1.001000
v 0.210000 0.890000 -1.001000
v 0.460000 0.890000 -1.001000
v 0.410000 0.890000 -1.001000
v 0.360000 0.890000 -1.001000
v 0.860000 0.890000 -1.001000
v 0.810000 0.890000 -1.001000
v 0.660000 0.890000 -1.001000
v 0.610000 0.890000 -1.001000
v 0.710000 0.890000 -1.001000
v 0.760000 0.890000 -1.001000
v 0.510000 0.890000 -1.001000
v 0.560000 0.890000 -1.001000
v 0.890000 0.740000 -1.001000
v 0.890000 0.790000 -1.001000
v 0.890000 0.540000 -1.001000
v 0.890000 0.590000 -1.001000
v 0.890000 0.640000 -1.001000
v 0.890000 0.690000 -1.001000
v 0.240000 0.160000 -1.001000
v 0.190000 0.160000 -1.001000
v 0.340000 0.160000 -1.001000
v 0.290000 0.160000 -1.001000
v 0.440000 0.160000 -1.001000
v 0.390000 0.160000 -1.001000
v 0.540000 0.160000 -1.001000
v 0.490000 0.160000 -1.001000
v 0.640000 0.160000 -1.001000
v 0.590000 0.160000 -1.001000
v 0.740000 0.160000 -1.001000
v 0.690000 0.160000 -1.001000
v 0.790000 0.160000 -1.001000
v 0.840000 0.160000 -1.001000
v 0.160000 0.160000 -1.001000
vn 0.0000 0.0000 -1.0000
vn -1.0000 0.0000 0.0000
vn 0.0000 -1.0000 0.0000
vn 1.0000 0.0000 0.0000
vn 0.0000 1.0000 0.0000
vn 0.0000 -1.0000 0.0001
vn 0.0000 -1.0000 -0.0001
vn 0.0000 -1.0000 -0.0002
vn 0.0000 1.0000 0.0001
vn 0.0000 1.0000 -0.0006
vn 0.0000 1.0000 0.0003
vn 0.0000 1.0000 0.0012
vn 0.0000 1.0000 0.0006
vn 0.0000 0.3512 -0.9363
vn 0.7071 0.7071 0.0000
vn 0.0211 0.0000 -0.9998
vn -0.7063 -0.7080 0.0007
vn 0.7063 0.7080 0.0005
vn -0.7063 -0.7080 0.0002
vn 0.7063 0.7080 -0.0010
vn 0.7063 0.7080 0.0010
vn -0.7063 -0.7080 0.0012
vn 0.7063 0.7080 0.0020
vn 0.7063 0.7080 0.0000
vn 0.0000 0.0200 -0.9998
vn -0.7063 -0.7080 0.0001
vn -0.0200 0.0000 -0.9998
vn 0.0000 0.0000 1.0000
vn -0.0333 -0.0100 -0.9994
vn 0.0100 -0.0333 -0.9994
vn 0.0200 0.0000 -0.9998
vn 0.0333 0.0100 -0.9994
vn -0.0286 -0.0086 -0.9996
vn 0.0086 -0.0286 -0.9996
vn 0.0333 -0.0333 -0.9989
vn -0.0100 0.0333 -0.9994
usemtl 材质.003
s off
f 9//1 7//1 2//1
f 8//1 10//1 2//1
f 11//1 5//1 7//1
f 9//1 11//1 7//1
f 10//2 12//2 9//2
f 13//3 11//3 9//3
f 12//3 13//3 9//3
f 14//1 5//1 11//1
f 15//4 14//4 11//4
f 13//4 15//4 11//4
f 8//1 14//1 10//1
f 14//5 16//5 10//5
f 16//2 12//2 10//2
f 8//1 5//1 14//1
f 15//5 16//5 14//5
f 18//2 20//2 17//2
f 20//2 21//2 17//2
f 21//2 22//2 17//2
f 23//3 24//3 17//3
f 25//6 26//6 17//6
f 24//3 25//3 17//3
f 26//7 27//7 17//7
f 27//6 28//6 17//6
f 28//7 29//7 17//7
f 29//3 30//3 17//3
f 30//3 19//3 17//3
f 32//4 33//4 19//4
f 34//4 35//4 19//4
f 33//4 34//4 19//4
f 35//4 36//4 19//4
f 36//4 37//4 19//4
f 37//4 38//4 19//4
f 38//4 39//4 19//4
f 39//4 31//4 19//4
f 40//3 41//3 19//3
f 30//3 42//3 19//3
f 42//3 43//3 19//3
f 43//7 44//7 19//7
f 44//3 45//3 19//3
f 45//3 40//3 19//3
f 49//1 46//1 48//1
f 55//2 56//2 47//2
f 56//2 57//2 47//2
f 58//1 59//1 52//1
f 59//1 50//1 52//1
f 60//1 61//1 51//1
f 61//1 53//1 51//1
f 62//1 63//1 54//1
f 63//1 64//1 54//1
f 67//1 66//1 65//1
f 68//1 67//1 65//1
f 70//1 71//1 69//1
f 71//1 72//1 69//1
f 75//1 74//1 73//1
f 76//1 75//1 73//1
f 78//3 79//3 77//3
f 80//3 78//3 77//3
f 81//3 80//3 77//3
f 82//3 81//3 77//3
f 79//3 83//3 77//3
f 83//3 84//3 77//3
f 84//8 55//8 77//8
f 85//2 86//2 55//2
f 86//2 56//2 55//2
f 87//2 88//2 55//2
f 88//2 89//2 55//2
f 89//2 90//2 55//2
f 90//2 91//2 55//2
f 91//2 92//2 55//2
f 92//2 93//2 55//2
f 93//2 94//2 55//2
f 94//2 95//2 55//2
f 95//2 85//2 55//2
f 96//7 97//7 55//7
f 98//3 96//3 55//3
f 99//3 98//3 55//3
f 100//3 99//3 55//3
f 84//3 101//3 55//3
f 101//3 100//3 55//3
f 102//2 103//2 18//2
f 103//2 104//2 18//2
f 104//2 20//2 18//2
f 105//2 106//2 18//2
f 107//2 108//2 18//2
f 109//2 107//2 18//2
f 110//2 109//2 18//2
f 106//2 110//2 18//2
f 111//2 102//2 18//2
f 112//2 111//2 18//2
f 108//2 112//2 18//2
f 31//9 113//9 18//9
f 113//10 114//10 18//10
f 114//11 115//11 18//11
f 116//5 117//5 31//5
f 117//12 118//12 31//12
f 118//5 113//5 31//5
f 119//5 120//5 31//5
f 121//10 122//10 31//10
f 123//13 121//13 31//13
f 124//10 123//10 31//10
f 120//11 124//11 31//11
f 125//5 116//5 31//5
f 126//5 125//5 31//5
f 122//12 126//12 31//12
f 127//4 128//4 31//4
f 39//4 129//4 31//4
f 129//4 130//4 31//4
f 130//4 131//4 31//4
f 131//4 132//4 31//4
f 132//4 127//4 31//4
f 133//1 24//1 23//1
f 134//1 133//1 23//1
f 135//1 26//1 25//1
f 136//1 135//1 25//1
f 137//1 28//1 27//1
f 138//1 137//1 27//1
f 139//1 30//1 29//1
f 140//1 139//1 29//1
f 141//1 43//1 42//1
f 142//1 141//1 42//1
f 143//1 45//1 44//1
f 144//1 143//1 44//1
f 145//1 41//1 40//1
f 145//1 146//1 41//1
f 57//1 33//1 32//1
f 48//14 134//14 147//14
f 48//14 133//14 134//14
f 48//14 136//14 133//14
f 48//14 47//14 136//14
f 47//14 135//14 136//14
f 47//14 138//14 135//14
f 47//14 137//14 138//14
f 47//14 140//14 137//14
f 47//14 139//14 140//14
f 47//14 142//14 139//14
f 47//14 141//14 142//14
f 47//14 144//14 141//14
f 47//14 143//14 144//14
f 47//14 145//14 143//14
f 47//14 146//14 145//14
f 147//15 22//15 48//15
f 22//16 49//16 48//16
f 57//2 146//2 47//2
f 56//1 33//1 57//1
f 21//16 49//16 22//16
f 21//17 46//17 49//17
f 86//1 35//1 34//1
f 52//18 20//18 58//18
f 20//16 59//16 58//16
f 85//1 35//1 86//1
f 104//16 59//16 20//16
f 104//19 50//19 59//19
f 95//1 37//1 36//1
f 51//20 103//20 60//20
f 103//16 61//16 60//16
f 94//1 37//1 95//1
f 102//16 61//16 103//16
f 102//19 53//19 61//19
f 93//1 39//1 38//1
f 54//21 111//21 62//21
f 111//16 63//16 62//16
f 92//1 39//1 93//1
f 112//16 63//16 111//16
f 112//22 64//22 63//22
f 91//1 130//1 129//1
f 65//20 108//20 68//20
f 108//16 67//16 68//16
f 90//1 130//1 91//1
f 107//16 67//16 108//16
f 107//22 66//22 67//22
f 89//1 132//1 131//1
f 69//23 109//23 70//23
f 109//16 71//16 70//16
f 88//1 132//1 89//1
f 110//16 71//16 109//16
f 110//19 72//19 71//19
f 87//1 128//1 127//1
f 73//24 106//24 76//24
f 106//16 75//16 76//16
f 55//25 128//25 87//25
f 105//16 75//16 106//16
f 105//26 74//26 75//26
f 115//27 82//27 77//27
f 115//1 114//1 82//1
f 113//1 80//1 81//1
f 113//1 118//1 80//1
f 117//1 79//1 78//1
f 117//1 116//1 79//1
f 125//1 84//1 83//1
f 125//1 126//1 84//1
f 122//1 100//1 101//1
f 122//1 121//1 100//1
f 123//1 98//1 99//1
f 123//1 124//1 98//1
f 120//1 97//1 96//1
f 120//1 119//1 97//1
usemtl 材质.004
f 10//1 9//1 2//1
f 17//1 13//1 12//1
f 18//1 17//1 12//1
f 16//1 18//1 12//1
f 17//1 19//1 13//1
f 19//1 15//1 13//1
f 31//1 15//1 19//1
f 16//1 31//1 18//1
f 16//1 15//1 31//1
usemtl 材质.005
f 1//2 2//2 3//2
f 2//3 4//3 3//3
f 4//28 1//28 3//28
f 5//4 6//4 4//4
f 7//4 5//4 4//4
f 2//3 7//3 4//3
f 6//28 1//28 4//28
f 8//2 2//2 1//2
f 6//5 8//5 1//5
f 5//5 8//5 6//5
f 46//1 47//1 48//1
f 50//1 51//1 47//1
f 52//1 50//1 47//1
f 46//1 52//1 47//1
f 51//1 53//1 47//1
f 53//1 54//1 47//1
f 54//1 55//1 47//1
f 64//1 55//1 54//1
f 65//1 55//1 64//1
f 66//1 55//1 65//1
f 69//1 55//1 66//1
f 72//1 55//1 69//1
f 73//1 55//1 72//1
f 74//1 55//1 73//1
f 77//1 55//1 74//1
usemtl 材质.006
f 22//29 23//29 17//29
f 22//1 147//1 23//1
f 147//1 134//1 23//1
f 133//1 136//1 24//1
f 136//1 25//1 24//1
f 135//1 138//1 26//1
f 138//1 27//1 26//1
f 137//1 140//1 28//1
f 140//1 29//1 28//1
f 139//1 142//1 30//1
f 142//1 42//1 30//1
f 141//1 144//1 43//1
f 144//1 44//1 43//1
f 143//1 145//1 45//1
f 145//1 40//1 45//1
f 32//30 19//30 41//30
f 146//1 32//1 41//1
f 146//1 57//1 32//1
f 56//1 86//1 33//1
f 86//1 34//1 33//1
f 20//31 52//31 46//31
f 21//31 20//31 46//31
f 85//1 95//1 35//1
f 95//1 36//1 35//1
f 103//31 51//31 50//31
f 104//31 103//31 50//31
f 94//1 93//1 37//1
f 93//1 38//1 37//1
f 111//31 54//31 53//31
f 102//31 111//31 53//31
f 92//1 91//1 39//1
f 91//1 129//1 39//1
f 108//31 65//31 64//31
f 112//31 108//31 64//31
f 90//1 89//1 130//1
f 89//1 131//1 130//1
f 109//31 69//31 66//31
f 107//31 109//31 66//31
f 88//1 87//1 132//1
f 87//1 127//1 132//1
f 106//31 73//31 72//31
f 110//31 106//31 72//31
f 119//32 31//32 128//32
f 55//33 119//33 128//33
f 105//31 77//31 74//31
f 105//34 115//34 77//34
f 113//1 81//1 82//1
f 114//1 113//1 82//1
f 117//1 78//1 80//1
f 118//1 117//1 80//1
f 125//1 83//1 79//1
f 116//1 125//1 79//1
f 122//1 101//1 84//1
f 126//1 122//1 84//1
f 123//1 99//1 100//1
f 121//1 123//1 100//1
f 120//1 96//1 98//1
f 124//1 120//1 98//1
f 119//35 55//35 97//35
f 18//36 115//36 105//36
