# Blender v2.92.0 OBJ File: ''
# www.blender.org
mtllib 地面可用.mtl
o 地面可用
v 0.000000 1.000000 0.000000
v 0.000000 0.000000 -0.990000
v 0.000000 0.000000 0.000000
v 1.000000 0.000000 0.000000
v 1.000000 1.000000 -0.990000
v 1.000000 1.000000 0.000000
v 1.000000 0.000000 -0.990000
v 0.000000 1.000000 -0.990000
v 0.010000 0.010000 -0.990000
v 0.010000 0.990000 -0.990000
v 0.990000 0.010000 -0.990000
v 0.010000 0.010000 -1.000000
v 0.990000 0.010000 -1.000000
v 0.990000 0.990000 -0.990000
v 0.990000 0.990000 -1.000000
v 0.010000 0.990000 -1.000000
vn -1.0000 0.0000 0.0000
vn 0.0000 -1.0000 0.0000
vn 0.0000 0.0000 1.0000
vn 1.0000 0.0000 0.0000
vn 0.0000 1.0000 0.0000
vn 0.0000 0.0000 -1.0000
usemtl 材质.001
s off
f 1//1 2//1 3//1
f 2//2 4//2 3//2
f 4//3 1//3 3//3
f 5//4 6//4 4//4
f 7//4 5//4 4//4
f 2//2 7//2 4//2
f 6//3 1//3 4//3
f 8//1 2//1 1//1
f 6//5 8//5 1//5
f 5//5 8//5 6//5
f 9//6 7//6 2//6
f 10//6 9//6 2//6
f 8//6 10//6 2//6
f 11//6 5//6 7//6
f 9//6 11//6 7//6
f 10//1 12//1 9//1
f 13//2 11//2 9//2
f 12//2 13//2 9//2
f 14//6 5//6 11//6
f 15//4 14//4 11//4
f 13//4 15//4 11//4
f 8//6 14//6 10//6
f 14//5 16//5 10//5
f 16//1 12//1 10//1
f 8//6 5//6 14//6
f 15//5 16//5 14//5
usemtl 材质.002
f 16//6 13//6 12//6
f 16//6 15//6 13//6
