# Blender v2.92.0 OBJ File: '装饰格子4.blend'
# www.blender.org
mtllib 装饰格子4.mtl
o 装饰格子3
v 0.955000 0.332428 -0.005000
v 0.955000 0.332428 0.000000
v 0.055000 0.332428 0.000000
v 0.055000 0.332428 -0.005000
v 0.055000 1.232428 0.000000
v 0.955000 1.232428 -0.005000
v 0.955000 1.232428 0.000000
v 0.055000 1.232428 -0.005000
v 0.005000 1.282428 -0.005000
v 0.005000 0.282428 -0.005000
v 1.005000 0.282428 -0.005000
v 0.005000 1.232428 -0.055000
v 0.005000 0.332428 -0.055000
v 0.005000 0.282428 -1.005000
v 0.105000 0.282428 -0.105000
v 0.105000 0.282428 -0.905000
v 1.005000 0.332428 -0.055000
v 1.005000 1.282428 -0.005000
v 1.005000 0.332428 -0.955000
v 1.005000 0.282428 -1.005000
v 0.905000 0.282428 -0.105000
v 0.005000 1.232428 -0.955000
v 0.005000 1.282428 -1.005000
v 1.005000 1.282428 -1.005000
v 1.005000 1.232428 -0.055000
v 0.000000 0.332428 -0.955000
v 0.000000 0.332428 -0.055000
v 0.000000 1.232428 -0.055000
v 0.000000 1.232428 -0.955000
v 0.005000 0.332428 -0.955000
v 1.010000 0.332428 -0.055000
v 1.010000 1.232428 -0.055000
v 1.010000 0.332428 -0.955000
v 1.005000 1.232428 -0.955000
v 1.010000 1.232428 -0.955000
v 0.158590 0.082428 -0.158590
v 0.851410 0.082428 -0.158590
v 0.905000 0.282428 -0.905000
v 0.851410 0.082428 -0.851410
v 0.158590 0.082428 -0.851410
v 0.055000 1.232428 -1.005000
v 0.055000 0.332428 -1.005000
v 0.955000 0.332428 -1.005000
v 0.055000 0.332428 -1.010000
v 0.955000 0.332428 -1.010000
v 0.955000 1.232428 -1.005000
v 0.955000 1.232428 -1.010000
v 0.055000 1.232428 -1.010000
vn 0.0000 -1.0000 0.0000
vn -1.0000 0.0000 0.0000
vn 0.0000 0.0000 1.0000
vn 1.0000 0.0000 0.0000
vn 0.0000 1.0000 0.0000
vn -0.9659 -0.2588 0.0000
vn 0.0000 -0.2588 0.9659
vn 0.9659 -0.2588 0.0000
vn 0.0000 -0.2588 -0.9659
vn 0.0000 0.0000 -1.0000
usemtl 材质
s off
f 1//1 2//1 3//1
f 4//1 1//1 3//1
f 5//2 4//2 3//2
f 2//3 5//3 3//3
f 6//4 7//4 2//4
f 1//4 6//4 2//4
f 7//3 5//3 2//3
f 7//5 8//5 5//5
f 8//2 4//2 5//2
f 6//5 8//5 7//5
f 4//3 9//3 10//3
f 1//3 4//3 10//3
f 11//3 1//3 10//3
f 12//2 13//2 10//2
f 9//2 12//2 10//2
f 13//2 14//2 10//2
f 15//1 11//1 10//1
f 16//1 15//1 10//1
f 14//1 16//1 10//1
f 17//4 18//4 11//4
f 19//4 17//4 11//4
f 20//4 19//4 11//4
f 6//3 1//3 11//3
f 18//3 6//3 11//3
f 21//1 20//1 11//1
f 15//1 21//1 11//1
f 8//3 9//3 4//3
f 6//3 18//3 8//3
f 18//3 9//3 8//3
f 22//2 12//2 9//2
f 23//2 22//2 9//2
f 18//5 24//5 9//5
f 24//5 23//5 9//5
f 25//4 24//4 18//4
f 17//4 25//4 18//4
f 26//1 13//1 27//1
f 12//3 28//3 27//3
f 13//3 12//3 27//3
f 28//2 29//2 27//2
f 29//2 26//2 27//2
f 26//1 30//1 13//1
f 30//2 14//2 13//2
f 19//1 31//1 17//1
f 31//3 32//3 17//3
f 32//3 25//3 17//3
f 19//1 33//1 31//1
f 33//4 32//4 31//4
f 22//5 29//5 28//5
f 12//5 22//5 28//5
f 34//4 24//4 25//4
f 32//5 35//5 25//5
f 35//5 34//5 25//5
f 33//4 35//4 32//4
f 16//6 36//6 15//6
f 36//7 37//7 15//7
f 37//7 21//7 15//7
f 38//1 20//1 21//1
f 37//8 39//8 21//8
f 39//8 38//8 21//8
f 16//6 40//6 36//6
f 40//1 37//1 36//1
f 40//1 39//1 37//1
f 38//9 39//9 40//9
f 16//9 38//9 40//9
f 14//1 38//1 16//1
f 14//1 20//1 38//1
f 29//10 30//10 26//10
f 29//10 22//10 30//10
f 22//2 23//2 30//2
f 23//2 14//2 30//2
f 20//4 34//4 19//4
f 34//10 33//10 19//10
f 34//10 35//10 33//10
f 20//4 24//4 34//4
f 41//10 42//10 14//10
f 23//10 41//10 14//10
f 42//10 20//10 14//10
f 43//10 24//10 20//10
f 42//10 43//10 20//10
f 44//1 45//1 42//1
f 45//1 43//1 42//1
f 41//2 44//2 42//2
f 46//10 24//10 43//10
f 45//4 47//4 43//4
f 47//4 46//4 43//4
f 23//10 46//10 41//10
f 48//2 44//2 41//2
f 46//5 48//5 41//5
f 23//10 24//10 46//10
f 47//5 48//5 46//5
f 48//10 47//10 44//10
f 47//10 45//10 44//10
