# Blender v2.92.0 OBJ File: '5装饰格子.blend'
# www.blender.org
mtllib 装饰格子5.mtl
o 装饰格子5
v 0.000000 1.000000 0.000000
v 0.000000 0.000000 -1.000000
v 0.000000 0.000000 0.000000
v 1.000000 0.000000 -1.000000
v 1.000000 0.000000 0.000000
v 1.000000 1.000000 0.000000
v 1.000000 1.000000 -1.000000
v 0.000000 1.000000 -1.000000
v 0.200000 0.200000 -1.000000
v 0.200000 0.800000 -1.000000
v 0.800000 0.200000 -1.000000
v 0.200000 0.250000 -1.050000
v 0.200000 0.200000 -1.600000
v 0.200000 0.750000 -1.050000
v 0.250000 0.200000 -1.050000
v 0.250000 0.200000 -1.550000
v 0.800000 0.800000 -1.000000
v 0.800000 0.250000 -1.050000
v 0.800000 0.250000 -1.550000
v 0.800000 0.200000 -1.600000
v 0.750000 0.200000 -1.050000
v 0.200000 0.750000 -1.550000
v 0.200000 0.800000 -1.600000
v 0.250000 0.800000 -1.050000
v 0.750000 0.800000 -1.050000
v 0.750000 0.800000 -1.550000
v 0.800000 0.800000 -1.600000
v 0.800000 0.750000 -1.050000
v 0.278868 0.250000 -1.078867
v 0.721133 0.250000 -1.078867
v 0.750000 0.200000 -1.550000
v 0.721133 0.250000 -1.521133
v 0.200000 0.250000 -1.550000
v 0.250000 0.278868 -1.078867
v 0.250000 0.278868 -1.521133
v 0.750000 0.278868 -1.078867
v 0.750000 0.721133 -1.078867
v 0.250000 0.721133 -1.078867
v 0.800000 0.750000 -1.550000
v 0.750000 0.721133 -1.521133
v 0.250000 0.800000 -1.550000
v 0.278868 0.750000 -1.078867
v 0.278868 0.750000 -1.521133
v 0.721133 0.750000 -1.078867
v 0.278868 0.250000 -1.521133
v 0.250000 0.721133 -1.521133
v 0.750000 0.278868 -1.521133
v 0.721133 0.750000 -1.521133
v 0.250000 0.750000 -1.600000
v 0.250000 0.250000 -1.600000
v 0.750000 0.250000 -1.600000
v 0.278868 0.278868 -1.650000
v 0.721133 0.278868 -1.650000
v 0.750000 0.750000 -1.600000
v 0.721133 0.721133 -1.650000
v 0.278868 0.721133 -1.650000
vn -1.0000 0.0000 0.0000
vn 0.0000 -1.0000 0.0000
vn 0.0000 0.0000 1.0000
vn 1.0000 0.0000 0.0000
vn 0.0000 1.0000 0.0000
vn 0.0000 0.0000 -1.0000
vn 0.8660 -0.5000 0.0000
vn 0.0000 -0.5000 -0.8660
vn -0.8660 -0.5000 0.0000
vn -0.5000 0.8660 0.0000
vn -0.5000 0.0000 -0.8660
vn 0.5000 0.8660 0.0000
vn 0.5000 0.0000 -0.8660
vn -0.5000 -0.8660 0.0000
vn 0.5000 -0.8660 0.0000
vn 0.8660 0.5000 0.0000
vn 0.0000 0.5000 -0.8660
vn -0.8660 0.5000 0.0000
vn 0.0000 -0.5000 0.8660
vn -0.5000 0.0000 0.8660
vn 0.5000 0.0000 0.8660
vn 0.0000 0.5000 0.8660
vn 0.0000 -0.8660 -0.5000
vn -0.8660 0.0000 -0.5000
vn 0.8660 0.0000 -0.5000
vn 0.0000 0.8660 -0.5000
usemtl 材质
s off
f 1//1 2//1 3//1
f 2//2 4//2 3//2
f 4//2 5//2 3//2
f 5//3 6//3 3//3
f 6//3 1//3 3//3
f 4//4 7//4 5//4
f 7//4 6//4 5//4
f 8//1 2//1 1//1
f 6//5 8//5 1//5
f 7//5 8//5 6//5
f 9//6 4//6 2//6
f 10//6 9//6 2//6
f 8//6 10//6 2//6
f 9//6 11//6 4//6
f 11//6 7//6 4//6
f 12//1 13//1 9//1
f 14//1 12//1 9//1
f 10//1 14//1 9//1
f 15//2 11//2 9//2
f 16//2 15//2 9//2
f 13//2 16//2 9//2
f 17//6 7//6 11//6
f 18//4 17//4 11//4
f 19//4 18//4 11//4
f 20//4 19//4 11//4
f 21//2 20//2 11//2
f 15//2 21//2 11//2
f 8//6 17//6 10//6
f 22//1 14//1 10//1
f 23//1 22//1 10//1
f 24//5 23//5 10//5
f 25//5 24//5 10//5
f 17//5 25//5 10//5
f 8//6 7//6 17//6
f 26//5 25//5 17//5
f 27//5 26//5 17//5
f 28//4 27//4 17//4
f 18//4 28//4 17//4
f 16//7 29//7 15//7
f 29//8 30//8 15//8
f 30//8 21//8 15//8
f 31//2 20//2 21//2
f 30//9 32//9 21//9
f 32//9 31//9 21//9
f 33//1 13//1 12//1
f 34//10 35//10 12//10
f 35//10 33//10 12//10
f 14//11 34//11 12//11
f 19//12 36//12 18//12
f 36//13 37//13 18//13
f 37//13 28//13 18//13
f 22//14 38//14 14//14
f 38//11 34//11 14//11
f 39//4 27//4 28//4
f 37//15 40//15 28//15
f 40//15 39//15 28//15
f 41//5 23//5 24//5
f 42//16 43//16 24//16
f 43//16 41//16 24//16
f 25//17 42//17 24//17
f 26//18 44//18 25//18
f 44//17 42//17 25//17
f 16//7 45//7 29//7
f 19//12 47//12 36//12
f 22//14 46//14 38//14
f 26//18 48//18 44//18
f 31//19 32//19 45//19
f 16//19 31//19 45//19
f 46//20 33//20 35//20
f 39//21 40//21 47//21
f 19//21 39//21 47//21
f 22//20 33//20 46//20
f 48//22 41//22 43//22
f 26//22 41//22 48//22
f 13//2 31//2 16//2
f 13//2 20//2 31//2
f 22//1 23//1 33//1
f 23//1 13//1 33//1
f 20//4 39//4 19//4
f 20//4 27//4 39//4
f 26//5 27//5 41//5
f 27//5 23//5 41//5
f 49//6 50//6 13//6
f 23//6 49//6 13//6
f 50//6 20//6 13//6
f 51//6 27//6 20//6
f 50//6 51//6 20//6
f 52//23 53//23 50//23
f 53//23 51//23 50//23
f 49//24 52//24 50//24
f 54//6 27//6 51//6
f 53//25 55//25 51//25
f 55//25 54//25 51//25
f 23//6 54//6 49//6
f 56//24 52//24 49//24
f 54//26 56//26 49//26
f 23//6 27//6 54//6
f 55//26 56//26 54//26
f 56//6 55//6 52//6
f 55//6 53//6 52//6
usemtl 材质.001
f 45//2 30//2 29//2
f 45//2 32//2 30//2
f 38//1 46//1 34//1
f 46//1 35//1 34//1
f 47//4 37//4 36//4
f 47//4 40//4 37//4
f 44//5 48//5 42//5
f 48//5 43//5 42//5
