# Blender v2.92.0 OBJ File: '装饰格子3.blend'
# www.blender.org
mtllib 装饰格子3.mtl
o 装饰格子4
v 0.000000 1.000000 0.000000
v 0.000000 0.000000 -1.000000
v 0.000000 0.000000 0.000000
v 1.000000 0.000000 -1.000000
v 1.000000 0.000000 0.000000
v 1.000000 1.000000 0.000000
v 1.000000 1.000000 -1.000000
v 0.000000 1.000000 -1.000000
v 0.058440 0.584754 -1.000000
v 0.901135 0.436164 -1.000000
v 0.948129 0.702679 -1.000000
v 0.058267 0.583769 -1.027167
v 0.900961 0.435180 -1.027167
v 0.105434 0.851269 -1.000000
v 0.948129 0.702679 -1.027167
v 0.900961 0.435180 -1.242912
v 0.105434 0.851269 -1.027167
v 0.058267 0.583769 -1.242912
v 0.948129 0.702679 -1.242912
v 0.105434 0.851269 -1.242912
v 0.058440 0.584754 -1.400000
v 0.901135 0.436164 -1.400000
v 0.948129 0.702679 -1.400000
v 0.105434 0.851269 -1.400000
vn -1.0000 0.0000 0.0000
vn 0.0000 -1.0000 0.0000
vn 0.0000 0.0000 1.0000
vn 1.0000 0.0000 0.0000
vn 0.0000 1.0000 0.0000
vn 0.0000 0.0000 -1.0000
vn -0.1735 -0.9841 0.0368
vn 0.9848 -0.1736 0.0000
vn -0.9848 0.1736 0.0000
vn 0.1736 0.9848 0.0000
vn -0.1736 -0.9848 -0.0064
vn -0.1736 -0.9848 0.0000
usemtl 材质
s off
f 1//1 2//1 3//1
f 2//2 4//2 3//2
f 4//2 5//2 3//2
f 5//3 6//3 3//3
f 6//3 1//3 3//3
f 4//4 7//4 5//4
f 7//4 6//4 5//4
f 8//1 2//1 1//1
f 6//5 8//5 1//5
f 7//5 8//5 6//5
f 8//6 9//6 2//6
f 9//6 4//6 2//6
f 9//6 10//6 4//6
f 10//6 11//6 4//6
f 11//6 7//6 4//6
f 8//6 14//6 9//6
f 14//6 8//6 11//6
f 8//6 7//6 11//6
usemtl 材质.001
f 12//7 13//7 10//7
f 9//7 12//7 10//7
f 13//8 11//8 10//8
f 14//9 12//9 9//9
f 15//10 14//10 11//10
f 16//8 15//8 11//8
f 13//8 16//8 11//8
f 17//9 12//9 14//9
f 15//10 17//10 14//10
f 16//8 19//8 15//8
f 18//11 21//11 16//11
f 21//11 22//11 16//11
f 22//8 23//8 16//8
f 23//8 19//8 16//8
f 20//9 21//9 18//9
f 23//10 20//10 19//10
f 23//10 24//10 20//10
f 24//9 21//9 20//9
f 21//6 23//6 22//6
f 24//6 23//6 21//6
usemtl 材质.002
f 18//12 16//12 13//12
f 12//12 18//12 13//12
f 17//9 18//9 12//9
f 19//10 17//10 15//10
f 20//9 18//9 17//9
f 19//10 20//10 17//10
