# Blender v2.92.0 OBJ File: ''
# www.blender.org
mtllib 装饰格子1.mtl
o 装饰格子1
v 0.040704 0.428073 -0.110000
v 0.040704 0.428073 -0.100000
v 0.000000 0.428073 0.000000
v 0.468777 0.428073 -0.100000
v 1.000000 0.428073 0.000000
v 0.000000 0.428073 -1.000000
v 0.030704 0.428073 -0.890000
v 0.030704 0.428073 -0.110000
v 0.000000 1.428073 0.000000
v 0.000000 1.428073 -1.000000
v 1.000000 0.428073 -1.000000
v 1.000000 1.428073 0.000000
v 1.000000 1.428073 -1.000000
v 0.040704 0.034838 -0.110000
v 0.040704 0.000000 -0.900000
v 0.040704 0.000000 -0.100000
v 0.096579 0.003662 -0.900000
v 0.096579 0.003662 -0.100000
v 0.151497 0.014586 -0.900000
v 0.151497 0.014586 -0.100000
v 0.204520 0.032585 -0.900000
v 0.204520 0.032585 -0.100000
v 0.254740 0.057351 -0.900000
v 0.254740 0.057351 -0.100000
v 0.301298 0.088460 -0.900000
v 0.301298 0.088460 -0.100000
v 0.343397 0.125380 -0.900000
v 0.343397 0.125380 -0.100000
v 0.380317 0.167479 -0.900000
v 0.380317 0.167479 -0.100000
v 0.411426 0.214037 -0.900000
v 0.411426 0.214037 -0.100000
v 0.436192 0.264257 -0.900000
v 0.436192 0.264257 -0.100000
v 0.454191 0.317280 -0.900000
v 0.454191 0.317280 -0.100000
v 0.465115 0.372198 -0.900000
v 0.465115 0.372198 -0.100000
v 0.468777 0.428073 -0.900000
v 0.030704 0.065570 -0.140000
v 0.030704 0.034838 -0.890000
v 0.030704 0.034838 -0.110000
v 0.030704 0.318804 -0.140000
v 0.040704 0.034838 -0.890000
v 0.030704 0.318804 -0.860000
v 0.020704 0.065570 -0.243359
v 0.020704 0.065570 -0.140000
v 0.025704 0.188748 -0.140000
v 0.020704 0.188748 -0.140000
v 0.030704 0.065570 -0.860000
v 0.025704 0.065570 -0.243359
v 0.025704 0.065570 -0.343359
v 0.025704 0.065570 -0.843359
v 0.025704 0.065570 -0.443359
v 0.025704 0.065570 -0.543359
v 0.025704 0.065570 -0.643359
v 0.025704 0.065570 -0.743359
v 0.025704 0.307923 -0.140000
v 0.020704 0.318804 -0.140000
v 0.020704 0.307923 -0.140000
v 0.020704 0.065570 -0.343359
v 0.020704 0.318804 -0.230870
v 0.025704 0.318804 -0.230870
v 0.025704 0.318804 -0.630870
v 0.025704 0.318804 -0.530870
v 0.025704 0.318804 -0.430870
v 0.025704 0.318804 -0.330870
v 0.020704 0.065570 -0.443359
v 0.020704 0.318804 -0.330870
v 0.020704 0.318804 -0.430870
v 0.020704 0.065570 -0.543359
v 0.020704 0.065570 -0.643359
v 0.020704 0.318804 -0.630870
v 0.020704 0.318804 -0.530870
v 0.020704 0.065570 -0.743359
v 0.020704 0.065570 -0.843359
v 0.025704 0.164913 -0.860000
v 0.025704 0.318804 -0.730870
v 0.020704 0.318804 -0.860000
v 0.020704 0.318804 -0.730870
v 0.020704 0.164913 -0.860000
v 0.025704 0.065570 -0.860000
v 0.040704 0.428073 -0.890000
v 0.040704 0.428073 -0.900000
v 0.020704 0.318804 -0.795435
v 0.020704 0.241858 -0.860000
v 0.020704 0.241858 -0.795435
v 0.020704 0.318804 -0.827718
v 0.020704 0.280331 -0.860000
v 0.020704 0.280331 -0.827718
v 0.020704 0.318804 -0.811576
v 0.020704 0.261095 -0.860000
v 0.020704 0.261095 -0.843859
v 0.020704 0.299567 -0.811576
v 0.020704 0.299567 -0.827718
v 0.020704 0.299567 -0.843859
v 0.020704 0.280331 -0.843859
vn 0.0000 -1.0000 0.0000
vn -1.0000 0.0000 0.0000
vn 0.0000 0.0000 1.0000
vn 1.0000 0.0000 0.0000
vn 0.0000 1.0000 0.0000
vn 0.0654 -0.9979 0.0000
vn 0.1951 -0.9808 0.0000
vn 0.3214 -0.9469 0.0000
vn 0.4423 -0.8969 0.0000
vn 0.5556 -0.8315 0.0000
vn 0.6593 -0.7518 0.0000
vn 0.7518 -0.6593 0.0000
vn 0.8315 -0.5556 0.0000
vn 0.8969 -0.4423 0.0000
vn 0.9469 -0.3214 0.0000
vn 0.9808 -0.1951 0.0000
vn 0.9979 -0.0654 0.0000
vn 0.0000 0.6428 -0.7660
vn 0.0000 -0.6428 0.7660
vn 0.0000 0.0000 -1.0000
usemtl 材质
s off
f 1//1 2//1 3//1
f 2//1 4//1 3//1
f 4//1 5//1 3//1
f 6//1 7//1 3//1
f 7//1 8//1 3//1
f 8//1 1//1 3//1
f 9//2 10//2 3//2
f 10//2 6//2 3//2
f 5//3 9//3 3//3
f 4//1 11//1 5//1
f 12//3 9//3 5//3
f 11//4 12//4 5//4
f 12//5 13//5 9//5
f 13//5 10//5 9//5
f 11//4 13//4 12//4
f 14//2 15//2 16//2
f 2//2 14//2 16//2
f 17//6 18//6 16//6
f 15//6 17//6 16//6
f 18//3 2//3 16//3
f 19//7 20//7 18//7
f 17//7 19//7 18//7
f 20//3 2//3 18//3
f 21//8 22//8 20//8
f 19//8 21//8 20//8
f 22//3 2//3 20//3
f 23//9 24//9 22//9
f 21//9 23//9 22//9
f 24//3 2//3 22//3
f 25//10 26//10 24//10
f 23//10 25//10 24//10
f 26//3 2//3 24//3
f 27//11 28//11 26//11
f 25//11 27//11 26//11
f 28//3 2//3 26//3
f 29//12 30//12 28//12
f 27//12 29//12 28//12
f 30//3 2//3 28//3
f 31//13 32//13 30//13
f 29//13 31//13 30//13
f 32//3 2//3 30//3
f 33//14 34//14 32//14
f 31//14 33//14 32//14
f 34//3 2//3 32//3
f 35//15 36//15 34//15
f 33//15 35//15 34//15
f 36//3 2//3 34//3
f 37//16 38//16 36//16
f 35//16 37//16 36//16
f 38//3 2//3 36//3
f 39//17 4//17 38//17
f 37//17 39//17 38//17
f 4//3 2//3 38//3
f 1//2 14//2 2//2
f 39//1 11//1 4//1
f 41//1 14//1 42//1
f 1//3 8//3 42//3
f 14//3 1//3 42//3
f 44//2 15//2 14//2
f 41//1 44//1 14//1
f 46//1 40//1 47//1
f 48//3 49//3 47//3
f 40//3 48//3 47//3
f 46//1 51//1 40//1
f 51//1 52//1 40//1
f 53//1 50//1 40//1
f 52//1 54//1 40//1
f 54//1 55//1 40//1
f 55//1 56//1 40//1
f 56//1 57//1 40//1
f 57//1 53//1 40//1
f 43//3 48//3 40//3
f 51//18 46//18 49//18
f 48//18 51//18 49//18
f 43//3 58//3 48//3
f 43//3 59//3 60//3
f 58//3 43//3 60//3
f 61//19 58//19 60//19
f 61//19 52//19 58//19
f 63//5 62//5 59//5
f 43//5 63//5 59//5
f 45//5 64//5 43//5
f 64//5 65//5 43//5
f 65//5 66//5 43//5
f 67//5 63//5 43//5
f 66//5 67//5 43//5
f 54//18 68//18 62//18
f 63//18 54//18 62//18
f 67//5 66//5 69//5
f 66//5 70//5 69//5
f 71//19 67//19 69//19
f 71//19 55//19 67//19
f 68//1 52//1 61//1
f 68//1 54//1 52//1
f 56//18 72//18 70//18
f 66//18 56//18 70//18
f 64//5 73//5 74//5
f 65//5 64//5 74//5
f 75//19 65//19 74//19
f 75//19 57//19 65//19
f 72//1 55//1 71//1
f 72//1 56//1 55//1
f 53//18 76//18 73//18
f 64//18 53//18 73//18
f 45//5 78//5 64//5
f 45//5 79//5 88//5 91//5 85//5 80//5
f 78//5 45//5 80//5
f 81//19 78//19 80//19 87//19
f 81//19 77//19 78//19
f 76//1 57//1 75//1
f 76//1 53//1 57//1
f 82//1 50//1 53//1
f 77//20 50//20 82//20
f 77//20 45//20 50//20
f 79//20 77//20 81//20 86//20 92//20 89//20
f 79//20 45//20 77//20
f 7//20 44//20 41//20
f 83//2 84//2 44//2
f 84//2 15//2 44//2
f 7//20 83//20 44//20
f 6//1 83//1 7//1
f 6//1 84//1 83//1
f 84//20 17//20 15//20
f 84//20 19//20 17//20
f 84//20 21//20 19//20
f 84//20 23//20 21//20
f 84//20 25//20 23//20
f 84//20 27//20 25//20
f 84//20 29//20 27//20
f 84//20 31//20 29//20
f 84//20 33//20 31//20
f 84//20 35//20 33//20
f 84//20 37//20 35//20
f 84//20 39//20 37//20
f 6//1 39//1 84//1
f 6//1 11//1 39//1
f 10//20 13//20 6//20
f 13//20 11//20 6//20
usemtl 材质.001
f 40//2 41//2 42//2
f 43//2 40//2 42//2
f 8//2 43//2 42//2
f 45//2 43//2 8//2
f 7//2 45//2 8//2
f 50//2 41//2 40//2
f 45//2 41//2 50//2
f 7//2 41//2 45//2
usemtl 材质.002
f 52//2 51//2 48//2
f 58//2 52//2 48//2
f 55//2 54//2 63//2
f 67//2 55//2 63//2
f 57//2 56//2 66//2
f 65//2 57//2 66//2
f 77//2 53//2 64//2
f 78//2 77//2 64//2
f 79//2 89//2 96//2 88//2
f 77//2 82//2 53//2
f 88//2 95//2 91//2
f 88//2 96//2 95//2
f 89//2 92//2 97//2
f 95//2 96//2 97//2
f 96//2 89//2 97//2
usemtl 材质.003
f 49//2 46//2 47//2
f 62//2 61//2 60//2
f 59//2 62//2 60//2
f 68//2 61//2 62//2
f 70//2 71//2 69//2
f 72//2 71//2 70//2
f 73//2 75//2 74//2
f 76//2 75//2 73//2
f 85//2 87//2 80//2
f 85//2 94//2 90//2 93//2 86//2 87//2
f 86//2 81//2 87//2
f 97//2 93//2 90//2
f 97//2 92//2 93//2
f 92//2 86//2 93//2
f 95//2 97//2 90//2
f 91//2 94//2 85//2
f 91//2 95//2 94//2
f 95//2 90//2 94//2
