# Blender v2.92.0 OBJ File: ''
# www.blender.org
mtllib 高台禁止.mtl
o 高台
v 0.000000 1.000000 0.000000
v 0.000000 1.000000 -1.050000
v 0.000000 0.000000 0.000000
v 0.000000 0.000000 -1.050000
v 1.000000 0.000000 0.000000
v 1.000000 1.000000 0.000000
v 1.000000 0.000000 -1.050000
v 1.000000 1.000000 -1.050000
v 0.339706 0.170000 -0.990000
v 0.254853 0.170000 -1.000000
v 0.254853 0.170000 -0.990000
v 0.203015 0.221838 -1.000000
v 0.170000 0.254853 -0.990000
v 0.170000 0.339706 -0.990000
v 0.339706 0.170000 -1.000000
v 0.203015 0.306690 -1.000000
v 0.509411 0.170000 -0.990000
v 0.424558 0.170000 -1.000000
v 0.424558 0.170000 -0.990000
v 0.372721 0.221838 -1.000000
v 0.170000 0.424558 -0.990000
v 0.170000 0.509411 -0.990000
v 0.509411 0.170000 -1.000000
v 0.372721 0.306690 -1.000000
v 0.679117 0.170000 -0.990000
v 0.594264 0.170000 -1.000000
v 0.594264 0.170000 -0.990000
v 0.372721 0.391543 -1.000000
v 0.170000 0.594264 -0.990000
v 0.170000 0.679117 -0.990000
v 0.679117 0.170000 -1.000000
v 0.372721 0.476396 -1.000000
v 0.830000 0.170000 -0.990000
v 0.741913 0.170000 -1.000000
v 0.741913 0.170000 -0.990000
v 0.170000 0.748760 -0.990000
v 0.372721 0.542426 -1.000000
v 0.457574 0.542426 -1.000000
v 0.830000 0.170000 -1.000000
v 0.170000 0.830000 -0.990000
v 0.830000 0.320883 -0.990000
v 0.830000 0.236030 -1.000000
v 0.830000 0.236030 -0.990000
v 0.523604 0.542426 -1.000000
v 0.236030 0.830000 -0.990000
v 0.320883 0.830000 -0.990000
v 0.170000 0.339706 -1.000000
v 0.170000 0.254853 -1.000000
v 0.830000 0.320883 -1.000000
v 0.608457 0.542426 -1.000000
v 0.830000 0.490589 -0.990000
v 0.830000 0.405736 -1.000000
v 0.830000 0.405736 -0.990000
v 0.693310 0.542426 -1.000000
v 0.405736 0.830000 -0.990000
v 0.490589 0.830000 -0.990000
v 0.170000 0.509411 -1.000000
v 0.170000 0.424558 -1.000000
v 0.203015 0.391543 -1.000000
v 0.830000 0.490589 -1.000000
v 0.778162 0.542426 -1.000000
v 0.608457 0.712132 -1.000000
v 0.203015 0.476396 -1.000000
v 0.693310 0.712132 -1.000000
v 0.575442 0.830000 -0.990000
v 0.830000 0.575442 -0.990000
v 0.830000 0.575442 -1.000000
v 0.830000 0.660294 -0.990000
v 0.660294 0.830000 -0.990000
v 0.170000 0.679117 -1.000000
v 0.170000 0.594264 -1.000000
v 0.203015 0.561249 -1.000000
v 0.221838 0.542426 -1.000000
v 0.830000 0.660294 -1.000000
v 0.778162 0.712132 -1.000000
v 0.203015 0.646102 -1.000000
v 0.306690 0.542426 -1.000000
v 0.830000 0.830000 -0.990000
v 0.830000 0.745147 -1.000000
v 0.830000 0.745147 -0.990000
v 0.745147 0.830000 -1.000000
v 0.745147 0.830000 -0.990000
v 0.170000 0.830000 -1.000000
v 0.170000 0.748760 -1.000000
v 0.206195 0.712132 -1.000000
v 0.203015 0.715350 -1.000000
v 0.203015 0.796985 -1.000000
v 0.287868 0.712132 -1.000000
v 0.372721 0.627279 -1.000000
v 0.320883 0.830000 -1.000000
v 0.236030 0.830000 -1.000000
v 0.353898 0.712132 -1.000000
v 0.372721 0.693310 -1.000000
v 0.372721 0.778162 -1.000000
v 0.438751 0.712132 -1.000000
v 0.490589 0.830000 -1.000000
v 0.405736 0.830000 -1.000000
v 0.523604 0.712132 -1.000000
v 0.660294 0.830000 -1.000000
v 0.575442 0.830000 -1.000000
v 0.830000 0.830000 -1.000000
v 0.203015 0.100000 -1.000000
v 0.100000 0.100000 -1.050000
v 0.100000 0.100000 -1.000000
v 0.100000 0.542426 -1.000000
v 0.372721 0.100000 -1.000000
v 0.900000 0.100000 -1.000000
v 0.900000 0.100000 -1.050000
v 0.900000 0.542426 -1.000000
v 0.203015 0.542426 -1.000000
v 0.100000 0.900000 -1.050000
v 0.100000 0.712132 -1.000000
v 0.900000 0.900000 -1.050000
v 0.900000 0.712132 -1.000000
v 0.203015 0.712132 -1.000000
v 0.100000 0.865000 -1.000000
v 0.900000 0.865000 -1.000000
v 0.372721 0.865000 -1.000000
v 0.203015 0.865000 -1.000000
v 0.100000 0.900000 -1.000000
v 0.203015 0.900000 -1.000000
v 0.372721 0.900000 -1.000000
v 0.900000 0.900000 -1.000000
vn -1.0000 0.0000 0.0000
vn 0.0000 0.0000 1.0000
vn 0.0000 -1.0000 0.0000
vn 1.0000 0.0000 0.0000
vn 0.0000 1.0000 0.0000
vn 0.7071 0.7071 0.0000
vn 0.0000 0.0000 -1.0000
vn -0.7071 -0.7071 0.0000
vn 0.7088 0.7005 -0.0831
vn 0.7102 0.7040 0.0000
vn 0.7136 0.7003 0.0181
vn 0.7113 0.7029 0.0000
vn 0.7071 0.7071 0.0001
usemtl 材质
s off
f 1//1 2//1 3//1
f 2//1 4//1 3//1
f 5//2 1//2 3//2
f 4//3 5//3 3//3
f 6//2 1//2 5//2
f 7//4 6//4 5//4
f 4//3 7//3 5//3
f 6//5 8//5 1//5
f 8//5 2//5 1//5
f 7//4 8//4 6//4
f 9//5 10//5 11//5
f 12//6 13//6 11//6
f 10//6 12//6 11//6
f 13//7 14//7 11//7
f 14//7 9//7 11//7
f 15//5 10//5 9//5
f 16//8 15//8 9//8
f 14//8 16//8 9//8
f 17//5 18//5 19//5
f 20//6 21//6 19//6
f 18//6 20//6 19//6
f 21//7 22//7 19//7
f 22//7 17//7 19//7
f 23//5 18//5 17//5
f 22//8 24//8 17//8
f 24//8 23//8 17//8
f 25//5 26//5 27//5
f 26//6 28//6 27//6
f 28//6 29//6 27//6
f 29//7 30//7 27//7
f 30//7 25//7 27//7
f 31//5 26//5 25//5
f 32//8 31//8 25//8
f 30//8 32//8 25//8
f 33//5 34//5 35//5
f 36//7 33//7 35//7
f 37//9 36//9 35//9
f 34//10 37//10 35//10
f 38//8 39//8 33//8
f 40//8 38//8 33//8
f 39//5 34//5 33//5
f 36//7 40//7 33//7
f 41//1 42//1 43//1
f 42//6 44//6 43//6
f 44//6 45//6 43//6
f 45//7 46//7 43//7
f 46//7 41//7 43//7
f 47//4 14//4 13//4
f 48//4 47//4 13//4
f 12//6 48//6 13//6
f 49//1 42//1 41//1
f 46//8 50//8 41//8
f 50//8 49//8 41//8
f 47//8 16//8 14//8
f 51//1 52//1 53//1
f 54//6 55//6 53//6
f 52//6 54//6 53//6
f 55//7 56//7 53//7
f 56//7 51//7 53//7
f 57//4 22//4 21//4
f 58//4 57//4 21//4
f 59//6 58//6 21//6
f 20//6 59//6 21//6
f 60//1 52//1 51//1
f 61//8 60//8 51//8
f 62//8 61//8 51//8
f 56//8 62//8 51//8
f 57//8 63//8 22//8
f 63//8 24//8 22//8
f 64//6 65//6 66//6
f 67//6 64//6 66//6
f 68//1 67//1 66//1
f 69//7 68//7 66//7
f 65//7 69//7 66//7
f 70//4 30//4 29//4
f 71//4 70//4 29//4
f 72//6 71//6 29//6
f 28//6 73//6 29//6
f 73//6 72//6 29//6
f 74//1 67//1 68//1
f 75//8 74//8 68//8
f 69//8 75//8 68//8
f 70//8 76//8 30//8
f 77//8 32//8 30//8
f 76//8 77//8 30//8
f 78//1 79//1 80//1
f 81//6 82//6 80//6
f 79//6 81//6 80//6
f 82//7 78//7 80//7
f 83//4 40//4 36//4
f 84//4 83//4 36//4
f 37//11 85//11 36//11
f 85//12 86//12 36//12
f 86//12 84//12 36//12
f 83//8 87//8 40//8
f 87//8 88//8 40//8
f 89//8 38//8 40//8
f 88//8 89//8 40//8
f 90//3 46//3 45//3
f 91//3 90//3 45//3
f 92//6 91//6 45//6
f 44//6 93//6 45//6
f 93//13 92//13 45//13
f 90//8 94//8 46//8
f 94//8 95//8 46//8
f 95//8 50//8 46//8
f 96//3 56//3 55//3
f 97//3 96//3 55//3
f 98//6 97//6 55//6
f 54//6 98//6 55//6
f 96//8 62//8 56//8
f 99//3 69//3 65//3
f 100//3 99//3 65//3
f 64//6 100//6 65//6
f 99//8 75//8 69//8
f 101//3 78//3 82//3
f 81//3 101//3 82//3
f 101//1 79//1 78//1
f 102//5 103//5 104//5
f 103//4 105//4 104//4
f 106//5 103//5 102//5
f 108//5 103//5 106//5
f 109//1 108//1 107//1
f 103//4 111//4 105//4
f 111//4 112//4 105//4
f 113//1 108//1 109//1
f 114//1 113//1 109//1
f 115//7 85//7 76//7
f 111//4 116//4 112//4
f 86//7 85//7 115//7
f 84//7 86//7 115//7
f 117//1 113//1 114//1
f 111//4 120//4 116//4
f 123//1 113//1 117//1
f 111//3 121//3 120//3
f 111//3 122//3 121//3
f 113//3 123//3 122//3
f 111//3 113//3 122//3
f 111//7 103//7 4//7
f 2//7 111//7 4//7
f 103//7 7//7 4//7
f 108//7 8//7 7//7
f 103//7 108//7 7//7
f 113//7 8//7 108//7
f 2//7 113//7 111//7
f 2//7 8//7 113//7
usemtl 材质.003
f 47//7 48//7 104//7
f 48//7 102//7 104//7
f 105//7 47//7 104//7
f 10//7 106//7 102//7
f 12//7 10//7 102//7
f 48//7 12//7 102//7
f 107//5 108//5 106//5
f 23//7 107//7 106//7
f 10//7 15//7 106//7
f 15//7 20//7 106//7
f 20//7 18//7 106//7
f 18//7 23//7 106//7
f 26//7 31//7 107//7
f 23//7 26//7 107//7
f 34//7 39//7 107//7
f 31//7 34//7 107//7
f 42//7 49//7 107//7
f 39//7 42//7 107//7
f 52//7 109//7 107//7
f 49//7 52//7 107//7
f 16//7 59//7 15//7
f 59//7 20//7 15//7
f 28//7 26//7 23//7
f 24//7 28//7 23//7
f 37//7 34//7 31//7
f 32//7 37//7 31//7
f 44//7 42//7 39//7
f 38//7 44//7 39//7
f 47//7 58//7 16//7
f 58//7 59//7 16//7
f 73//7 28//7 24//7
f 63//7 73//7 24//7
f 54//7 52//7 49//7
f 50//7 54//7 49//7
f 105//7 58//7 47//7
f 60//7 109//7 52//7
f 105//7 57//7 58//7
f 110//7 73//7 63//7
f 57//7 110//7 63//7
f 77//7 37//7 32//7
f 61//7 109//7 60//7
f 105//7 110//7 57//7
f 71//7 110//7 105//7
f 70//7 71//7 105//7
f 112//7 70//7 105//7
f 72//7 73//7 110//7
f 71//7 72//7 110//7
f 76//7 37//7 77//7
f 89//7 44//7 38//7
f 89//7 93//7 44//7
f 95//7 54//7 50//7
f 95//7 98//7 54//7
f 67//7 109//7 61//7
f 64//7 67//7 61//7
f 62//7 64//7 61//7
f 67//7 114//7 109//7
f 76//7 85//7 37//7
f 74//7 114//7 67//7
f 88//7 93//7 89//7
f 70//7 115//7 76//7
f 75//7 114//7 74//7
f 112//7 115//7 70//7
f 88//7 92//7 93//7
f 83//7 84//7 112//7
f 116//7 83//7 112//7
f 84//7 115//7 112//7
f 87//7 91//7 88//7
f 91//7 92//7 88//7
f 94//7 97//7 95//7
f 97//7 98//7 95//7
f 100//7 64//7 62//7
f 96//7 100//7 62//7
f 99//7 81//7 75//7
f 81//7 79//7 75//7
f 79//7 114//7 75//7
f 79//7 117//7 114//7
f 101//7 117//7 79//7
f 90//7 118//7 94//7
f 118//7 97//7 94//7
f 83//7 119//7 87//7
f 119//7 91//7 87//7
f 116//7 119//7 83//7
f 119//7 90//7 91//7
f 119//7 118//7 90//7
f 118//7 96//7 97//7
f 118//7 100//7 96//7
f 118//7 99//7 100//7
f 118//7 81//7 99//7
f 117//7 101//7 81//7
f 118//7 117//7 81//7
f 120//7 121//7 116//7
f 121//7 119//7 116//7
f 121//7 122//7 119//7
f 122//7 118//7 119//7
f 122//7 123//7 118//7
f 123//7 117//7 118//7
