# Blender v2.92.0 OBJ File: '地面禁止.blend'
# www.blender.org
mtllib 地面禁止.mtl
o 地面禁止
v 0.000000 1.000000 0.000000
v 0.000000 0.000000 -0.990000
v 0.000000 0.000000 0.000000
v 1.000000 0.000000 0.000000
v 1.000000 1.000000 -0.990000
v 1.000000 1.000000 0.000000
v 1.000000 0.000000 -0.990000
v 0.000000 1.000000 -0.990000
v 0.010000 0.010000 -0.990000
v 0.010000 0.990000 -0.990000
v 0.990000 0.010000 -0.990000
v 0.010000 0.010000 -1.000000
v 0.990000 0.010000 -1.000000
v 0.990000 0.990000 -0.990000
v 0.990000 0.990000 -1.000000
v 0.010000 0.990000 -1.000000
v 0.110000 0.110000 -1.000000
v 0.110000 0.890000 -1.000000
v 0.890000 0.110000 -1.000000
v 0.110000 0.310000 -1.001000
v 0.110000 0.260000 -1.001000
v 0.110000 0.210000 -1.001000
v 0.140000 0.110000 -1.001000
v 0.190000 0.110000 -1.001000
v 0.240000 0.110000 -1.001000
v 0.290000 0.110000 -1.001000
v 0.340000 0.110000 -1.001000
v 0.390000 0.110000 -1.001000
v 0.440000 0.110000 -1.001000
v 0.490000 0.110000 -1.001000
v 0.890000 0.890000 -1.000000
v 0.890000 0.140000 -1.001000
v 0.890000 0.190000 -1.001000
v 0.890000 0.240000 -1.001000
v 0.890000 0.290000 -1.001000
v 0.890000 0.340000 -1.001000
v 0.890000 0.390000 -1.001000
v 0.890000 0.440000 -1.001000
v 0.890000 0.490000 -1.001000
v 0.740000 0.110000 -1.001000
v 0.790000 0.110000 -1.001000
v 0.540000 0.110000 -1.001000
v 0.590000 0.110000 -1.001000
v 0.640000 0.110000 -1.001000
v 0.690000 0.110000 -1.001000
v 0.160000 0.210000 -1.000000
v 0.840000 0.162666 -1.000000
v 0.157334 0.162666 -1.000000
v 0.157334 0.212666 -1.000000
v 0.160000 0.310000 -1.000000
v 0.160000 0.360000 -1.000000
v 0.160000 0.260000 -1.000000
v 0.160000 0.410000 -1.000000
v 0.160000 0.460000 -1.000000
v 0.840000 0.840000 -1.000000
v 0.840000 0.240000 -1.001000
v 0.840000 0.190000 -1.001000
v 0.157334 0.262666 -1.000000
v 0.157334 0.312666 -1.000000
v 0.157334 0.362666 -1.000000
v 0.157334 0.412666 -1.000000
v 0.157334 0.462666 -1.000000
v 0.157334 0.512666 -1.000000
v 0.160000 0.510000 -1.000000
v 0.160000 0.560000 -1.000000
v 0.160000 0.610000 -1.000000
v 0.157334 0.612666 -1.000000
v 0.157334 0.562666 -1.000000
v 0.160000 0.660000 -1.000000
v 0.157334 0.662666 -1.000000
v 0.157334 0.712666 -1.000000
v 0.160000 0.710000 -1.000000
v 0.160000 0.760000 -1.000000
v 0.160000 0.810000 -1.000000
v 0.157334 0.812666 -1.000000
v 0.157334 0.762666 -1.000000
v 0.160000 0.840000 -1.000000
v 0.360000 0.840000 -1.001000
v 0.410000 0.840000 -1.001000
v 0.310000 0.840000 -1.001000
v 0.260000 0.840000 -1.001000
v 0.210000 0.840000 -1.001000
v 0.460000 0.840000 -1.001000
v 0.510000 0.840000 -1.001000
v 0.840000 0.340000 -1.001000
v 0.840000 0.290000 -1.001000
v 0.840000 0.790000 -1.001000
v 0.840000 0.740000 -1.001000
v 0.840000 0.690000 -1.001000
v 0.840000 0.640000 -1.001000
v 0.840000 0.590000 -1.001000
v 0.840000 0.540000 -1.001000
v 0.840000 0.490000 -1.001000
v 0.840000 0.440000 -1.001000
v 0.840000 0.390000 -1.001000
v 0.760000 0.840000 -1.001000
v 0.810000 0.840000 -1.001000
v 0.710000 0.840000 -1.001000
v 0.660000 0.840000 -1.001000
v 0.610000 0.840000 -1.001000
v 0.560000 0.840000 -1.001000
v 0.110000 0.460000 -1.001000
v 0.110000 0.410000 -1.001000
v 0.110000 0.360000 -1.001000
v 0.110000 0.860000 -1.001000
v 0.110000 0.810000 -1.001000
v 0.110000 0.660000 -1.001000
v 0.110000 0.610000 -1.001000
v 0.110000 0.710000 -1.001000
v 0.110000 0.760000 -1.001000
v 0.110000 0.510000 -1.001000
v 0.110000 0.560000 -1.001000
v 0.310000 0.890000 -1.001000
v 0.260000 0.890000 -1.001000
v 0.210000 0.890000 -1.001000
v 0.460000 0.890000 -1.001000
v 0.410000 0.890000 -1.001000
v 0.360000 0.890000 -1.001000
v 0.860000 0.890000 -1.001000
v 0.810000 0.890000 -1.001000
v 0.660000 0.890000 -1.001000
v 0.610000 0.890000 -1.001000
v 0.710000 0.890000 -1.001000
v 0.760000 0.890000 -1.001000
v 0.510000 0.890000 -1.001000
v 0.560000 0.890000 -1.001000
v 0.890000 0.740000 -1.001000
v 0.890000 0.790000 -1.001000
v 0.890000 0.540000 -1.001000
v 0.890000 0.590000 -1.001000
v 0.890000 0.640000 -1.001000
v 0.890000 0.690000 -1.001000
v 0.240000 0.160000 -1.001000
v 0.190000 0.160000 -1.001000
v 0.340000 0.160000 -1.001000
v 0.290000 0.160000 -1.001000
v 0.440000 0.160000 -1.001000
v 0.390000 0.160000 -1.001000
v 0.540000 0.160000 -1.001000
v 0.490000 0.160000 -1.001000
v 0.640000 0.160000 -1.001000
v 0.590000 0.160000 -1.001000
v 0.740000 0.160000 -1.001000
v 0.690000 0.160000 -1.001000
v 0.790000 0.160000 -1.001000
v 0.840000 0.160000 -1.001000
v 0.160000 0.160000 -1.001000
vn -1.0000 0.0000 0.0000
vn 0.0000 -1.0000 0.0000
vn 0.0000 0.0000 1.0000
vn 1.0000 0.0000 0.0000
vn 0.0000 1.0000 0.0000
vn 0.0000 0.0000 -1.0000
vn 0.0000 -1.0000 0.0001
vn 0.0000 -1.0000 -0.0001
vn 0.0000 -1.0000 -0.0002
vn 0.0000 1.0000 -0.0006
vn 0.0000 1.0000 0.0006
vn 0.0000 1.0000 0.0003
vn 0.0000 1.0000 0.0012
vn 0.0000 0.3512 -0.9363
vn 0.7071 0.7071 0.0000
vn -0.7063 -0.7080 0.0007
vn 0.7063 0.7080 0.0005
vn -0.7063 -0.7080 0.0002
vn 0.7063 0.7080 -0.0010
vn 0.7063 0.7080 0.0010
vn -0.7063 -0.7080 0.0012
vn 0.7063 0.7080 0.0020
vn 0.7063 0.7080 0.0000
vn -0.7063 -0.7080 0.0001
vn 0.0000 1.0000 0.0001
vn 0.0211 0.0000 -0.9998
vn 0.0000 0.0200 -0.9998
vn -0.0200 0.0000 -0.9998
vn -0.0333 -0.0100 -0.9994
vn 0.0100 -0.0333 -0.9994
vn 0.0200 0.0000 -0.9998
vn 0.0333 0.0100 -0.9994
vn -0.0286 -0.0086 -0.9996
vn 0.0086 -0.0286 -0.9996
vn 0.0333 -0.0333 -0.9989
vn -0.0100 0.0333 -0.9994
usemtl 材质
s off
f 1//1 2//1 3//1
f 2//2 4//2 3//2
f 4//3 1//3 3//3
f 5//4 6//4 4//4
f 7//4 5//4 4//4
f 2//2 7//2 4//2
f 6//3 1//3 4//3
f 8//1 2//1 1//1
f 6//5 8//5 1//5
f 5//5 8//5 6//5
f 9//6 7//6 2//6
f 10//6 9//6 2//6
f 8//6 10//6 2//6
f 11//6 5//6 7//6
f 9//6 11//6 7//6
f 10//1 12//1 9//1
f 13//2 11//2 9//2
f 12//2 13//2 9//2
f 14//6 5//6 11//6
f 15//4 14//4 11//4
f 13//4 15//4 11//4
f 8//6 14//6 10//6
f 14//5 16//5 10//5
f 16//1 12//1 10//1
f 8//6 5//6 14//6
f 15//5 16//5 14//5
f 18//1 20//1 17//1
f 20//1 21//1 17//1
f 21//1 22//1 17//1
f 23//2 24//2 17//2
f 25//7 26//7 17//7
f 24//2 25//2 17//2
f 26//8 27//8 17//8
f 27//7 28//7 17//7
f 28//8 29//8 17//8
f 29//2 30//2 17//2
f 30//2 19//2 17//2
f 32//4 33//4 19//4
f 34//4 35//4 19//4
f 33//4 34//4 19//4
f 35//4 36//4 19//4
f 36//4 37//4 19//4
f 37//4 38//4 19//4
f 38//4 39//4 19//4
f 39//4 31//4 19//4
f 40//2 41//2 19//2
f 30//2 42//2 19//2
f 42//2 43//2 19//2
f 43//8 44//8 19//8
f 44//2 45//2 19//2
f 45//2 40//2 19//2
f 46//6 47//6 48//6
f 49//6 46//6 48//6
f 50//6 51//6 47//6
f 52//6 50//6 47//6
f 46//6 52//6 47//6
f 51//6 53//6 47//6
f 53//6 54//6 47//6
f 54//6 55//6 47//6
f 56//1 57//1 47//1
f 58//6 59//6 52//6
f 59//6 50//6 52//6
f 61//6 53//6 51//6
f 64//6 55//6 54//6
f 65//6 55//6 64//6
f 66//6 55//6 65//6
f 69//6 55//6 66//6
f 72//6 55//6 69//6
f 73//6 55//6 72//6
f 74//6 55//6 73//6
f 77//6 55//6 74//6
f 78//2 79//2 77//2
f 80//2 78//2 77//2
f 81//2 80//2 77//2
f 82//2 81//2 77//2
f 79//2 83//2 77//2
f 83//2 84//2 77//2
f 84//9 55//9 77//9
f 85//1 86//1 55//1
f 86//1 56//1 55//1
f 87//1 88//1 55//1
f 88//1 89//1 55//1
f 89//1 90//1 55//1
f 90//1 91//1 55//1
f 91//1 92//1 55//1
f 92//1 93//1 55//1
f 93//1 94//1 55//1
f 94//1 95//1 55//1
f 95//1 85//1 55//1
f 96//8 97//8 55//8
f 98//2 96//2 55//2
f 99//2 98//2 55//2
f 100//2 99//2 55//2
f 84//2 101//2 55//2
f 101//2 100//2 55//2
f 102//1 103//1 18//1
f 103//1 104//1 18//1
f 104//1 20//1 18//1
f 105//1 106//1 18//1
f 107//1 108//1 18//1
f 109//1 107//1 18//1
f 106//1 110//1 18//1
f 111//1 102//1 18//1
f 112//1 111//1 18//1
f 108//1 112//1 18//1
f 116//5 117//5 31//5
f 118//5 113//5 31//5
f 119//5 120//5 31//5
f 121//10 122//10 31//10
f 123//11 121//11 31//11
f 124//10 123//10 31//10
f 120//12 124//12 31//12
f 125//5 116//5 31//5
f 126//5 125//5 31//5
f 122//13 126//13 31//13
f 127//4 128//4 31//4
f 39//4 129//4 31//4
f 129//4 130//4 31//4
f 130//4 131//4 31//4
f 131//4 132//4 31//4
f 132//4 127//4 31//4
f 48//14 133//14 134//14
f 48//14 136//14 133//14
f 147//15 22//15 48//15
f 57//1 146//1 47//1
f 21//16 46//16 49//16
f 52//17 20//17 58//17
f 104//18 50//18 59//18
f 51//19 103//19 60//19
f 102//18 53//18 61//18
f 54//20 111//20 62//20
f 112//21 64//21 63//21
f 65//19 108//19 68//19
f 107//21 66//21 67//21
f 69//22 109//22 70//22
f 110//18 72//18 71//18
f 73//23 106//23 76//23
f 105//24 74//24 75//24
usemtl 材质.001
f 17//6 13//6 12//6
f 18//6 17//6 12//6
f 16//6 18//6 12//6
f 17//6 19//6 13//6
f 19//6 15//6 13//6
f 31//6 15//6 19//6
f 16//6 31//6 18//6
f 16//6 15//6 31//6
usemtl 材质.002
f 55//1 56//1 47//1
f 60//6 61//6 51//6
f 62//6 63//6 54//6
f 63//6 64//6 54//6
f 67//6 66//6 65//6
f 68//6 67//6 65//6
f 70//6 71//6 69//6
f 71//6 72//6 69//6
f 75//6 74//6 73//6
f 76//6 75//6 73//6
f 110//1 109//1 18//1
f 31//25 113//25 18//25
f 113//10 114//10 18//10
f 114//12 115//12 18//12
f 117//13 118//13 31//13
f 133//6 24//6 23//6
f 134//6 133//6 23//6
f 135//6 26//6 25//6
f 136//6 135//6 25//6
f 137//6 28//6 27//6
f 138//6 137//6 27//6
f 139//6 30//6 29//6
f 140//6 139//6 29//6
f 141//6 43//6 42//6
f 142//6 141//6 42//6
f 143//6 45//6 44//6
f 144//6 143//6 44//6
f 145//6 41//6 40//6
f 145//6 146//6 41//6
f 57//6 33//6 32//6
f 48//14 134//14 147//14
f 48//14 47//14 136//14
f 47//14 135//14 136//14
f 47//14 138//14 135//14
f 47//14 137//14 138//14
f 47//14 140//14 137//14
f 47//14 139//14 140//14
f 47//14 142//14 139//14
f 47//14 141//14 142//14
f 47//14 144//14 141//14
f 47//14 143//14 144//14
f 47//14 145//14 143//14
f 47//14 146//14 145//14
f 22//26 49//26 48//26
f 56//6 33//6 57//6
f 21//26 49//26 22//26
f 86//6 35//6 34//6
f 20//26 59//26 58//26
f 85//6 35//6 86//6
f 104//26 59//26 20//26
f 95//6 37//6 36//6
f 103//26 61//26 60//26
f 94//6 37//6 95//6
f 102//26 61//26 103//26
f 93//6 39//6 38//6
f 111//26 63//26 62//26
f 92//6 39//6 93//6
f 112//26 63//26 111//26
f 91//6 130//6 129//6
f 108//26 67//26 68//26
f 90//6 130//6 91//6
f 107//26 67//26 108//26
f 89//6 132//6 131//6
f 109//26 71//26 70//26
f 88//6 132//6 89//6
f 110//26 71//26 109//26
f 87//6 128//6 127//6
f 106//26 75//26 76//26
f 55//27 128//27 87//27
f 105//26 75//26 106//26
f 115//28 82//28 77//28
f 115//6 114//6 82//6
f 113//6 80//6 81//6
f 113//6 118//6 80//6
f 117//6 79//6 78//6
f 117//6 116//6 79//6
f 125//6 84//6 83//6
f 125//6 126//6 84//6
f 122//6 100//6 101//6
f 122//6 121//6 100//6
f 123//6 98//6 99//6
f 123//6 124//6 98//6
f 120//6 97//6 96//6
f 120//6 119//6 97//6
usemtl 材质.003
f 22//29 23//29 17//29
f 22//6 147//6 23//6
f 147//6 134//6 23//6
f 133//6 136//6 24//6
f 136//6 25//6 24//6
f 135//6 138//6 26//6
f 138//6 27//6 26//6
f 137//6 140//6 28//6
f 140//6 29//6 28//6
f 139//6 142//6 30//6
f 142//6 42//6 30//6
f 141//6 144//6 43//6
f 144//6 44//6 43//6
f 143//6 145//6 45//6
f 145//6 40//6 45//6
f 32//30 19//30 41//30
f 146//6 32//6 41//6
f 146//6 57//6 32//6
f 56//6 86//6 33//6
f 86//6 34//6 33//6
f 20//31 52//31 46//31
f 21//31 20//31 46//31
f 85//6 95//6 35//6
f 95//6 36//6 35//6
f 103//31 51//31 50//31
f 104//31 103//31 50//31
f 94//6 93//6 37//6
f 93//6 38//6 37//6
f 111//31 54//31 53//31
f 102//31 111//31 53//31
f 92//6 91//6 39//6
f 91//6 129//6 39//6
f 108//31 65//31 64//31
f 112//31 108//31 64//31
f 90//6 89//6 130//6
f 89//6 131//6 130//6
f 109//31 69//31 66//31
f 107//31 109//31 66//31
f 88//6 87//6 132//6
f 87//6 127//6 132//6
f 106//31 73//31 72//31
f 110//31 106//31 72//31
f 119//32 31//32 128//32
f 55//33 119//33 128//33
f 105//31 77//31 74//31
f 105//34 115//34 77//34
f 113//6 81//6 82//6
f 114//6 113//6 82//6
f 117//6 78//6 80//6
f 118//6 117//6 80//6
f 125//6 83//6 79//6
f 116//6 125//6 79//6
f 122//6 101//6 84//6
f 126//6 122//6 84//6
f 123//6 99//6 100//6
f 121//6 123//6 100//6
f 120//6 96//6 98//6
f 124//6 120//6 98//6
f 119//35 55//35 97//35
f 18//36 115//36 105//36
