# Blender v2.92.0 OBJ File: '装饰格子2.blend'
# www.blender.org
mtllib 落穴.mtl
o 落穴
v 0.000000 1.000000 0.000000
v 0.000000 1.000000 -1.000000
v 0.000000 0.000000 0.000000
v 0.000000 0.000000 -1.000000
v 1.000000 0.000000 0.000000
v 1.000000 1.000000 0.000000
v 1.000000 0.000000 -1.000000
v 0.050000 1.000000 -0.050000
v 0.950000 1.000000 -0.050000
v 1.000000 1.000000 -1.000000
v 0.950000 1.000000 -0.950000
v 0.050000 0.100000 -0.950000
v 0.050000 0.100000 -0.050000
v 0.950000 0.100000 -0.050000
v 0.950000 0.100000 -0.950000
v 0.050000 1.000000 -0.950000
vn -1.0000 0.0000 0.0000
vn 0.0000 0.0000 1.0000
vn 0.0000 -1.0000 0.0000
vn 1.0000 0.0000 0.0000
vn 0.0000 1.0000 0.0000
vn 0.0000 0.0000 -1.0000
usemtl 材质
s off
f 1//1 2//1 3//1
f 2//1 4//1 3//1
f 5//2 1//2 3//2
f 4//3 5//3 3//3
f 6//2 1//2 5//2
f 7//4 6//4 5//4
f 4//3 7//3 5//3
f 8//5 2//5 1//5
f 9//5 8//5 1//5
f 6//5 9//5 1//5
f 7//4 10//4 6//4
f 11//5 9//5 6//5
f 10//5 11//5 6//5
f 16//5 2//5 8//5
f 11//5 10//5 16//5
f 10//5 2//5 16//5
f 2//6 10//6 4//6
f 10//6 7//6 4//6
usemtl 材质.001
f 12//4 8//4 13//4
f 9//6 14//6 13//6
f 8//6 9//6 13//6
f 14//5 15//5 13//5
f 15//5 12//5 13//5
f 11//1 15//1 14//1
f 9//1 11//1 14//1
f 12//4 16//4 8//4
f 15//2 16//2 12//2
f 11//2 16//2 15//2
