# Blender v2.92.0 OBJ File: '高台可用.blend'
# www.blender.org
mtllib 高台可用.mtl
o 高台可用
v 1.000000 0.000000 0.000000
v 0.000000 1.000000 0.000000
v 0.000000 0.000000 0.000000
v 0.000000 0.000000 -0.930000
v 1.000000 1.000000 0.000000
v 1.000000 1.000000 -0.930000
v 1.000000 0.000000 -0.930000
v 0.000000 1.000000 -0.930000
v 0.010000 0.990000 -0.930000
v 0.010000 0.010000 -0.930000
v 0.990000 0.010000 -0.930000
v 0.010000 0.010000 -0.940000
v 0.990000 0.010000 -0.940000
v 0.990000 0.990000 -0.930000
v 0.990000 0.990000 -0.940000
v 0.010000 0.990000 -0.940000
v 0.000000 0.000000 -0.990000
v 1.000000 0.000000 -0.990000
v 0.000000 0.000000 -0.940000
v 1.000000 0.000000 -0.940000
v 0.000000 1.000000 -0.940000
v 0.000000 1.000000 -0.990000
v 1.000000 1.000000 -0.940000
v 1.000000 1.000000 -0.990000
v 0.010000 0.010000 -0.990000
v 0.010000 0.990000 -0.990000
v 0.990000 0.010000 -0.990000
v 0.010000 0.010000 -1.010000
v 0.010000 0.990000 -1.010000
v 0.990000 0.990000 -0.990000
v 0.990000 0.010000 -1.010000
v 0.505000 0.495000 -0.990000
v 0.505000 0.100000 -0.990000
v 0.495000 0.100000 -0.990000
v 0.495000 0.495000 -0.990000
v 0.495000 0.495000 -1.000000
v 0.495000 0.100000 -1.000000
v 0.505000 0.100000 -1.000000
v 0.100000 0.495000 -1.000000
v 0.100000 0.495000 -0.990000
v 0.100000 0.505000 -0.990000
v 0.100000 0.505000 -1.000000
v 0.495000 0.505000 -0.990000
v 0.900000 0.495000 -0.990000
v 0.505000 0.495000 -1.000000
v 0.505000 0.505000 -0.990000
v 0.900000 0.495000 -1.000000
v 0.900000 0.505000 -0.990000
v 0.495000 0.505000 -1.000000
v 0.495000 0.900000 -1.000000
v 0.495000 0.900000 -0.990000
v 0.505000 0.900000 -0.990000
v 0.505000 0.505000 -1.000000
v 0.900000 0.505000 -1.000000
v 0.505000 0.900000 -1.000000
v 0.990000 0.990000 -1.010000
v 0.100000 0.100000 -1.000000
v 0.100000 0.100000 -1.010000
v 0.900000 0.100000 -1.010000
v 0.900000 0.100000 -1.000000
v 0.900000 0.900000 -1.010000
v 0.100000 0.900000 -1.000000
v 0.100000 0.900000 -1.010000
v 0.900000 0.900000 -1.000000
vn 0.0000 0.0000 1.0000
vn -0.0000 0.0000 -1.0000
vn -1.0000 0.0000 0.0000
vn 0.0000 -1.0000 0.0000
vn 1.0000 0.0000 0.0000
vn 0.0000 1.0000 0.0000
vn 0.0000 -1.0000 0.0003
usemtl 材质
s off
f 1//1 2//1 3//1
f 5//1 2//1 1//1
f 9//2 10//2 4//2
f 8//2 9//2 4//2
f 10//2 7//2 4//2
f 11//2 6//2 7//2
f 10//2 11//2 7//2
f 9//3 12//3 10//3
f 13//4 11//4 10//4
f 12//4 13//4 10//4
f 14//2 6//2 11//2
f 15//5 14//5 11//5
f 13//5 15//5 11//5
f 8//2 14//2 9//2
f 16//3 12//3 9//3
f 14//6 16//6 9//6
f 8//2 6//2 14//2
f 15//6 16//6 14//6
f 17//4 18//4 19//4
f 18//4 20//4 19//4
f 21//3 22//3 19//3
f 22//3 17//3 19//3
f 12//1 21//1 19//1
f 13//1 12//1 19//1
f 20//1 13//1 19//1
f 18//5 23//5 20//5
f 15//1 13//1 20//1
f 23//1 15//1 20//1
f 16//1 21//1 12//1
f 15//1 23//1 16//1
f 23//1 21//1 16//1
f 23//6 24//6 21//6
f 24//6 22//6 21//6
f 18//5 24//5 23//5
f 28//4 27//4 25//4
f 29//3 28//3 25//3
f 26//3 29//3 25//3
f 28//4 31//4 27//4
f 31//5 30//5 27//5
f 32//2 33//2 34//2
f 35//2 32//2 34//2
f 36//5 35//5 34//5
f 37//5 36//5 34//5
f 33//6 37//6 34//6
f 32//3 38//3 33//3
f 38//6 37//6 33//6
f 35//6 39//6 40//6
f 41//2 35//2 40//2
f 39//5 42//5 40//5
f 42//5 41//5 40//5
f 36//6 39//6 35//6
f 41//2 43//2 35//2
f 43//2 32//2 35//2
f 44//6 45//6 32//6
f 45//3 38//3 32//3
f 43//2 46//2 32//2
f 46//2 44//2 32//2
f 47//6 45//6 44//6
f 46//2 48//2 44//2
f 48//3 47//3 44//3
f 49//4 43//4 41//4
f 42//4 49//4 41//4
f 50//5 51//5 43//5
f 49//5 50//5 43//5
f 51//2 52//2 43//2
f 52//2 46//2 43//2
f 52//3 53//3 46//3
f 54//4 48//4 46//4
f 53//4 54//4 46//4
f 54//3 47//3 48//3
f 50//4 55//4 51//4
f 55//4 52//4 51//4
f 55//3 53//3 52//3
f 56//6 29//6 26//6
f 30//6 56//6 26//6
f 31//5 56//5 30//5
f 58//5 39//5 57//5
f 37//6 58//6 57//6
f 59//6 58//6 37//6
f 38//6 59//6 37//6
f 60//6 59//6 38//6
f 47//3 59//3 60//3
f 58//5 42//5 39//5
f 61//3 59//3 47//3
f 54//3 61//3 47//3
f 58//5 63//5 42//5
f 63//5 62//5 42//5
f 64//3 61//3 54//3
f 63//4 50//4 62//4
f 63//7 55//7 50//7
f 63//4 61//4 55//4
f 61//4 64//4 55//4
f 63//2 58//2 28//2
f 29//2 63//2 28//2
f 58//2 31//2 28//2
f 59//2 56//2 31//2
f 58//2 59//2 31//2
f 61//2 56//2 59//2
f 29//2 61//2 63//2
f 29//2 56//2 61//2
usemtl 材质.001
f 39//2 37//2 57//2
f 39//2 36//2 37//2
f 45//2 47//2 38//2
f 47//2 60//2 38//2
f 50//2 49//2 42//2
f 62//2 50//2 42//2
f 55//2 54//2 53//2
f 55//2 64//2 54//2
usemtl 材质.002
f 25//2 18//2 17//2
f 26//2 25//2 17//2
f 22//2 26//2 17//2
f 25//2 27//2 18//2
f 27//2 24//2 18//2
f 30//2 24//2 27//2
f 22//2 30//2 26//2
f 22//2 24//2 30//2
usemtl 材质.003
f 2//3 4//3 3//3
f 4//4 1//4 3//4
f 6//5 5//5 1//5
f 7//5 6//5 1//5
f 4//4 7//4 1//4
f 8//3 4//3 2//3
f 5//6 8//6 2//6
f 6//6 8//6 5//6
